<svg xmlns="http://www.w3.org/2000/svg" xmlns:xlink="http://www.w3.org/1999/xlink" width="150" zoomAndPan="magnify" viewBox="0 0 112.5 112.499997" height="150" preserveAspectRatio="xMidYMid meet" version="1.0"><defs><clipPath id="37dcaf16ed"><path d="M 14 4 L 99 4 L 99 109 L 14 109 Z M 14 4 " clip-rule="nonzero"/></clipPath><clipPath id="13e60a8938"><path d="M 3.640625 18.007812 L 82.445312 -5.152344 L 111.5 93.710938 L 32.695312 116.867188 Z M 3.640625 18.007812 " clip-rule="nonzero"/></clipPath><clipPath id="92eb16f49b"><path d="M 3.640625 18.007812 L 82.445312 -5.152344 L 111.5 93.710938 L 32.695312 116.867188 Z M 3.640625 18.007812 " clip-rule="nonzero"/></clipPath><clipPath id="e38a7e5f29"><path d="M 18 8 L 95 8 L 95 105 L 18 105 Z M 18 8 " clip-rule="nonzero"/></clipPath><clipPath id="6a64160383"><path d="M 3.640625 18.007812 L 82.445312 -5.152344 L 111.5 93.710938 L 32.695312 116.867188 Z M 3.640625 18.007812 " clip-rule="nonzero"/></clipPath><clipPath id="4c6fe1dfb4"><path d="M 3.640625 18.007812 L 82.445312 -5.152344 L 111.5 93.710938 L 32.695312 116.867188 Z M 3.640625 18.007812 " clip-rule="nonzero"/></clipPath><clipPath id="fb434a7cf2"><path d="M 25 8 L 95 8 L 95 94 L 25 94 Z M 25 8 " clip-rule="nonzero"/></clipPath><clipPath id="01045f4857"><path d="M 3.640625 18.007812 L 82.445312 -5.152344 L 111.5 93.710938 L 32.695312 116.867188 Z M 3.640625 18.007812 " clip-rule="nonzero"/></clipPath><clipPath id="3854ada749"><path d="M 3.640625 18.007812 L 82.445312 -5.152344 L 111.5 93.710938 L 32.695312 116.867188 Z M 3.640625 18.007812 " clip-rule="nonzero"/></clipPath><clipPath id="030292259c"><path d="M 53 87 L 85 87 L 85 105 L 53 105 Z M 53 87 " clip-rule="nonzero"/></clipPath><clipPath id="3b528cedbb"><path d="M 3.640625 18.007812 L 82.445312 -5.152344 L 111.5 93.710938 L 32.695312 116.867188 Z M 3.640625 18.007812 " clip-rule="nonzero"/></clipPath><clipPath id="84d22ab71d"><path d="M 3.640625 18.007812 L 82.445312 -5.152344 L 111.5 93.710938 L 32.695312 116.867188 Z M 3.640625 18.007812 " clip-rule="nonzero"/></clipPath><clipPath id="b43b68c4c8"><path d="M 66 28 L 80 28 L 80 41 L 66 41 Z M 66 28 " clip-rule="nonzero"/></clipPath><clipPath id="938910e650"><path d="M 3.640625 18.007812 L 82.445312 -5.152344 L 111.5 93.710938 L 32.695312 116.867188 Z M 3.640625 18.007812 " clip-rule="nonzero"/></clipPath><clipPath id="1c11d925a2"><path d="M 3.640625 18.007812 L 82.445312 -5.152344 L 111.5 93.710938 L 32.695312 116.867188 Z M 3.640625 18.007812 " clip-rule="nonzero"/></clipPath><clipPath id="7143338878"><path d="M 62 57 L 75 57 L 75 73 L 62 73 Z M 62 57 " clip-rule="nonzero"/></clipPath><clipPath id="00808b80fb"><path d="M 3.640625 18.007812 L 82.445312 -5.152344 L 111.5 93.710938 L 32.695312 116.867188 Z M 3.640625 18.007812 " clip-rule="nonzero"/></clipPath><clipPath id="15908c2981"><path d="M 3.640625 18.007812 L 82.445312 -5.152344 L 111.5 93.710938 L 32.695312 116.867188 Z M 3.640625 18.007812 " clip-rule="nonzero"/></clipPath><clipPath id="a2bb9b62af"><path d="M 50 27 L 64 27 L 64 41 L 50 41 Z M 50 27 " clip-rule="nonzero"/></clipPath><clipPath id="c98829ff64"><path d="M 3.640625 18.007812 L 82.445312 -5.152344 L 111.5 93.710938 L 32.695312 116.867188 Z M 3.640625 18.007812 " clip-rule="nonzero"/></clipPath><clipPath id="2e4f2f646d"><path d="M 3.640625 18.007812 L 82.445312 -5.152344 L 111.5 93.710938 L 32.695312 116.867188 Z M 3.640625 18.007812 " clip-rule="nonzero"/></clipPath><clipPath id="315b7c1981"><path d="M 17 6 L 97 6 L 97 106 L 17 106 Z M 17 6 " clip-rule="nonzero"/></clipPath><clipPath id="7b384e86da"><path d="M 3.640625 18.007812 L 82.445312 -5.152344 L 111.5 93.710938 L 32.695312 116.867188 Z M 3.640625 18.007812 " clip-rule="nonzero"/></clipPath><clipPath id="872bac13de"><path d="M 3.640625 18.007812 L 82.445312 -5.152344 L 111.5 93.710938 L 32.695312 116.867188 Z M 3.640625 18.007812 " clip-rule="nonzero"/></clipPath></defs><g clip-path="url(#37dcaf16ed)"><g clip-path="url(#13e60a8938)"><g clip-path="url(#92eb16f49b)"><path fill="#ffffff" d="M 65.3125 107.492188 C 55.808594 110.285156 43.496094 107.578125 34.703125 100.726562 C 28 95.488281 24.457031 88.617188 24.707031 81.367188 C 24.699219 80.730469 24.859375 80.144531 25.195312 79.601562 C 25.640625 78.832031 26.050781 78.039062 26.457031 77.246094 C 27.253906 75.792969 28.039062 74.308594 28.925781 72.855469 L 31.246094 69.945312 L 32.070312 68.910156 C 30.113281 68.171875 28.265625 67.21875 26.53125 66.046875 C 24.792969 64.875 23.21875 63.519531 21.800781 61.976562 C 20.386719 60.4375 19.167969 58.75 18.148438 56.921875 C 17.128906 55.09375 16.335938 53.171875 15.769531 51.160156 C 13.445312 43.042969 15.050781 34.691406 20.214844 28.257812 C 26.183594 16.757812 35.160156 8.746094 45.535156 5.695312 C 48.609375 4.800781 51.75 4.324219 54.953125 4.273438 C 64.703125 3.882812 77.3125 6.984375 83.386719 16.839844 C 83.710938 17.445312 84.066406 18.03125 84.453125 18.601562 C 85.875 20.839844 87.21875 22.921875 85.589844 26.421875 C 83.582031 30.5625 81.09375 34.390625 78.121094 37.902344 C 89.570312 39.761719 97.941406 48.90625 98.585938 60.355469 C 99.425781 68.722656 96.023438 79.070312 89.195312 88.773438 C 82.871094 97.808594 74.535156 104.6875 67.480469 106.761719 L 67.140625 106.859375 C 66.578125 107.089844 65.96875 107.296875 65.3125 107.492188 Z M 65.3125 107.492188 " fill-opacity="1" fill-rule="nonzero"/></g></g></g><g clip-path="url(#e38a7e5f29)"><g clip-path="url(#6a64160383)"><g clip-path="url(#4c6fe1dfb4)"><path fill="#004aad" d="M 36.28125 69.71875 L 32.046875 75.054688 C 30.800781 77.160156 29.695312 79.320312 28.523438 81.464844 C 28.179688 97.96875 50.402344 108.421875 64.960938 103.5 C 75.316406 101.007812 82.933594 91.589844 88.25 82.757812 C 101.6875 62.894531 94.539062 38.789062 67.855469 41.316406 C 69.984375 39.621094 72.621094 37.992188 74.59375 36.191406 L 78.847656 30.816406 C 80.007812 28.734375 81.140625 26.660156 82.265625 24.558594 C 79.714844 9.546875 59.007812 5.492188 46.332031 9.554688 C 35.195312 12.613281 28.625 21.113281 23.425781 30.335938 C 12 45.300781 21.769531 64.820312 39.859375 66.925781 C 38.703125 67.875 37.273438 68.632812 36.28125 69.71875 Z M 59.457031 68.554688 C 62.558594 68.195312 65.808594 70.628906 67.148438 73.320312 C 62.03125 74.398438 56.257812 72.214844 52.488281 68.222656 C 54.847656 68.355469 57.179688 68.492188 59.457031 68.554688 Z M 51.800781 38.550781 C 53.777344 38.738281 55.507812 39.492188 56.988281 40.816406 C 54.933594 40.378906 53.121094 39.722656 51.800781 38.550781 Z M 51.800781 38.550781 " fill-opacity="1" fill-rule="nonzero"/></g></g></g><g clip-path="url(#fb434a7cf2)"><g clip-path="url(#01045f4857)"><g clip-path="url(#3854ada749)"><path fill="#ffffff" d="M 72.9375 91.871094 L 72.574219 91.976562 C 64.8125 94.257812 55.914062 93.179688 48.742188 89.054688 C 42.203125 85.296875 37.636719 79.429688 35.902344 72.484375 C 35.46875 70.902344 35.8125 69.886719 37.144531 68.914062 C 39.160156 67.464844 41.144531 65.996094 43.316406 64.351562 L 43.429688 64.316406 C 43.902344 64.019531 44.339844 63.675781 44.746094 63.289062 C 45.453125 62.683594 46.179688 62.042969 46.941406 61.820312 C 47.699219 61.597656 48.707031 61.699219 49.375 63.457031 C 52.296875 70.691406 61.046875 75.207031 68.101562 73.132812 C 70.042969 72.566406 71.726562 71.5625 73.144531 70.125 C 75.566406 67.457031 75.636719 64.992188 75.277344 63.355469 C 74.671875 60.144531 70.734375 56.628906 67.046875 57.070312 L 66.964844 57.097656 C 60.90625 56.859375 54.429688 56.535156 47.957031 55.503906 C 39.816406 54.933594 32.09375 49.75 28.273438 42.261719 C 24.988281 35.863281 25.171875 28.90625 28.707031 23.164062 C 31.910156 16.816406 38.195312 12.007812 46.347656 9.609375 C 59.167969 5.84375 75.511719 8.859375 81.949219 21.933594 C 82.925781 23.90625 82.828125 24.394531 81.101562 25.695312 C 79.375 26.996094 78.007812 27.949219 76.507812 29.089844 C 74.15625 30.851562 71.734375 32.695312 69.246094 34.3125 L 69.078125 34.359375 C 67.589844 34.796875 67.03125 33.3125 66.707031 32.523438 L 66.621094 32.242188 C 64.722656 27.546875 59.429688 26.261719 55.4375 27.433594 C 54.074219 27.824219 52.867188 28.484375 51.804688 29.417969 C 49.839844 31.15625 49.175781 32.941406 49.664062 35.027344 C 51.214844 41.65625 60.207031 41.488281 68.140625 41.355469 C 71.121094 41.304688 73.941406 41.238281 76.050781 41.566406 C 83.070312 42.160156 91.171875 46.652344 93.171875 54.1875 C 95.871094 61.09375 95.476562 68.785156 92.015625 75.816406 C 88.28125 83.484375 81.269531 89.453125 73.285156 91.800781 Z M 72.9375 91.871094 " fill-opacity="1" fill-rule="nonzero"/></g></g></g><g clip-path="url(#030292259c)"><g clip-path="url(#3b528cedbb)"><g clip-path="url(#84d22ab71d)"><path fill="#ffde59" d="M 83.84375 87.503906 C 83.6875 87.335938 83.5 87.289062 83.28125 87.363281 L 83.085938 87.421875 C 80.160156 89.625 76.941406 91.253906 73.433594 92.304688 L 72.730469 92.511719 C 68.269531 93.804688 63.746094 94.074219 59.160156 93.324219 L 53.394531 103.84375 C 57.144531 104.332031 60.839844 104.132812 64.074219 103.179688 L 65.902344 102.644531 C 72.367188 100.742188 78.257812 96.050781 83.917969 88.277344 C 84.003906 88.15625 84.039062 88.023438 84.023438 87.878906 C 84.011719 87.730469 83.949219 87.605469 83.84375 87.503906 Z M 83.84375 87.503906 " fill-opacity="1" fill-rule="nonzero"/></g></g></g><g clip-path="url(#b43b68c4c8)"><g clip-path="url(#938910e650)"><g clip-path="url(#1c11d925a2)"><path fill="#ffde59" d="M 67.738281 40.710938 L 67.597656 40.753906 L 66.6875 40.773438 C 66.589844 40.769531 66.496094 40.738281 66.410156 40.6875 C 66.324219 40.636719 66.257812 40.570312 66.203125 40.484375 C 66.152344 40.398438 66.121094 40.308594 66.113281 40.207031 C 66.105469 40.109375 66.121094 40.011719 66.160156 39.921875 L 68.441406 35.3125 C 68.507812 35.140625 68.628906 35.035156 68.804688 34.992188 L 69.226562 34.867188 C 69.347656 34.839844 69.453125 34.789062 69.546875 34.710938 C 72.035156 33.09375 74.484375 31.246094 76.839844 29.484375 L 78.183594 28.445312 L 78.378906 28.390625 C 78.582031 28.332031 78.769531 28.371094 78.933594 28.5 C 79.035156 28.59375 79.101562 28.707031 79.121094 28.84375 C 79.144531 28.980469 79.121094 29.109375 79.054688 29.230469 L 78.371094 30.4375 L 78.332031 30.511719 L 76.300781 33.0625 L 76.214844 33.179688 C 75.039062 34.6875 74.476562 35.371094 74.242188 35.714844 L 74.171875 35.796875 C 73.035156 36.800781 71.644531 37.789062 70.339844 38.753906 L 68.273438 40.246094 L 68.070312 40.492188 C 67.988281 40.609375 67.878906 40.683594 67.738281 40.710938 Z M 67.738281 40.710938 " fill-opacity="1" fill-rule="nonzero"/></g></g></g><g clip-path="url(#7143338878)"><g clip-path="url(#00808b80fb)"><g clip-path="url(#15908c2981)"><path fill="#ffde59" d="M 68.214844 57.613281 C 66.277344 61.207031 64.304688 64.78125 62.332031 68.355469 C 64.398438 69.128906 66.035156 70.4375 67.242188 72.285156 C 67.3125 72.398438 67.40625 72.480469 67.527344 72.527344 C 67.648438 72.578125 67.773438 72.585938 67.902344 72.550781 L 67.929688 72.542969 C 69.78125 72 71.382812 71.042969 72.734375 69.664062 C 74.945312 67.210938 75.046875 64.953125 74.707031 63.496094 C 74.203125 60.832031 71.273438 57.9375 68.214844 57.613281 Z M 68.214844 57.613281 " fill-opacity="1" fill-rule="nonzero"/></g></g></g><g clip-path="url(#a2bb9b62af)"><g clip-path="url(#c98829ff64)"><g clip-path="url(#2e4f2f646d)"><path fill="#ffde59" d="M 57.21875 40.257812 L 63.371094 29.074219 C 61.109375 27.507812 58.09375 27.234375 55.59375 27.96875 C 54.324219 28.339844 53.195312 28.957031 52.199219 29.824219 C 50.398438 31.390625 49.800781 33 50.226562 34.859375 C 50.992188 38.085938 53.691406 39.585938 57.21875 40.257812 Z M 57.21875 40.257812 " fill-opacity="1" fill-rule="nonzero"/></g></g></g><g clip-path="url(#315b7c1981)"><g clip-path="url(#7b384e86da)"><g clip-path="url(#872bac13de)"><path fill="#000000" d="M 66.398438 104.332031 L 64.515625 104.882812 C 56.023438 107.378906 45.042969 105.140625 37.136719 99.339844 C 30.675781 94.609375 27.214844 88.234375 27.355469 81.441406 L 27.355469 81.230469 L 27.40625 81.09375 L 27.496094 80.882812 C 27.921875 80.144531 28.3125 79.390625 28.707031 78.664062 C 29.453125 77.253906 30.226562 75.832031 31.046875 74.464844 L 31.132812 74.34375 L 35.894531 68.304688 L 36.148438 68.230469 L 36.480469 68.007812 L 36.921875 67.636719 C 28.878906 65.84375 22.265625 60.488281 19.179688 53.210938 C 15.84375 45.394531 17.050781 36.824219 22.445312 29.707031 C 24.425781 26.164062 27.207031 21.589844 31.039062 17.59375 C 33.515625 14.796875 36.421875 12.558594 39.757812 10.875 L 40.132812 10.703125 C 41.863281 9.820312 43.65625 9.097656 45.515625 8.542969 L 46.613281 8.21875 C 49.371094 7.429688 52.183594 6.992188 55.050781 6.898438 C 59.679688 6.667969 64.1875 7.308594 68.566406 8.824219 C 70.546875 9.492188 72.429688 10.363281 74.222656 11.4375 C 77.207031 13.277344 79.554688 15.550781 81.175781 18.253906 C 81.839844 19.25 82.441406 20.285156 82.972656 21.359375 C 83.714844 22.851562 84.027344 24.011719 83.3125 25.105469 L 82.835938 25.980469 C 81.863281 27.761719 80.898438 29.574219 79.867188 31.371094 L 79.800781 31.453125 C 79.632812 31.714844 79.136719 32.320312 77.691406 34.152344 L 75.640625 36.738281 L 75.554688 36.855469 L 75.390625 37.027344 C 74.25 38.03125 72.917969 39.003906 71.632812 39.933594 C 74.980469 39.910156 78.242188 40.417969 81.425781 41.453125 C 87.355469 43.4375 91.972656 47.515625 93.839844 52.40625 C 95.035156 55.003906 95.734375 57.730469 95.9375 60.585938 C 96.191406 63.082031 96.117188 65.570312 95.71875 68.050781 C 95.316406 70.53125 94.601562 72.914062 93.574219 75.207031 C 92.425781 78.097656 90.976562 80.835938 89.238281 83.414062 C 82.207031 95.042969 74.71875 101.882812 66.398438 104.332031 Z M 64.6875 102.359375 L 65.730469 102.054688 C 72.054688 100.195312 77.839844 95.5625 83.4375 87.898438 C 80.457031 90.144531 77.175781 91.800781 73.597656 92.867188 L 72.894531 93.074219 C 64.824219 95.445312 55.601562 94.308594 48.152344 90.054688 C 41.5 86.234375 36.820312 80.28125 34.917969 73.292969 L 33.023438 75.683594 C 32.226562 77.019531 31.5 78.390625 30.785156 79.703125 L 30.800781 79.757812 L 29.699219 81.730469 C 29.703125 87.65625 32.832031 93.210938 38.523438 97.402344 C 45.746094 102.761719 56.179688 104.890625 63.910156 102.617188 L 64.695312 102.386719 Z M 72.945312 90.648438 C 80.621094 88.390625 87.335938 82.660156 90.96875 75.269531 L 91.269531 74.632812 C 93.203125 69.789062 93.984375 64.855469 93.550781 60.371094 C 93.300781 58.386719 92.808594 56.464844 92.070312 54.605469 L 92.054688 54.546875 L 92.039062 54.492188 C 91.945312 54.109375 91.828125 53.738281 91.679688 53.375 C 91.445312 52.894531 91.214844 52.414062 90.96875 51.996094 C 88.542969 47.792969 84.578125 44.800781 79.511719 43.359375 C 78.351562 43.046875 77.171875 42.84375 75.972656 42.75 L 75.917969 42.765625 C 73.871094 42.453125 71.105469 42.5 68.183594 42.535156 C 59.800781 42.707031 50.292969 42.875 48.558594 35.320312 C 47.9375 32.785156 48.757812 30.589844 51.035156 28.574219 C 52.222656 27.515625 53.582031 26.769531 55.113281 26.339844 C 59.613281 25.015625 65.539062 26.480469 67.695312 31.835938 C 67.75 31.9375 67.792969 32.050781 67.820312 32.164062 C 68.253906 33.320312 68.476562 33.347656 68.671875 33.289062 C 71.101562 31.6875 73.476562 29.890625 75.800781 28.140625 L 80.421875 24.734375 L 81.023438 24.285156 C 80.667969 22.601562 80.050781 21.019531 79.171875 19.542969 C 76.480469 15.691406 72.652344 12.847656 67.761719 11.074219 C 63.761719 9.765625 59.65625 9.167969 55.449219 9.289062 C 52.476562 9.40625 49.5625 9.886719 46.707031 10.726562 C 44.824219 11.25 42.996094 11.929688 41.226562 12.765625 C 38.015625 14.425781 35.175781 16.585938 32.714844 19.238281 C 31.542969 20.589844 30.550781 22.0625 29.738281 23.65625 L 29.699219 23.730469 C 26.359375 29.109375 26.210938 35.660156 29.292969 41.683594 C 32.941406 48.796875 40.285156 53.726562 48 54.300781 L 48.082031 54.277344 C 54.511719 55.257812 60.933594 55.601562 66.960938 55.84375 C 71.339844 55.351562 75.707031 59.414062 76.421875 63.082031 C 76.84375 64.945312 76.75 67.84375 74 70.851562 L 73.972656 70.859375 C 72.46875 72.375 70.695312 73.445312 68.652344 74.070312 C 68.621094 74.132812 68.570312 74.167969 68.5 74.175781 L 68.472656 74.183594 L 67.324219 74.429688 L 65.980469 74.640625 L 65.65625 74.675781 L 65.386719 74.695312 C 60.433594 74.988281 55.289062 72.867188 51.609375 68.96875 L 50.097656 67.367188 C 49.996094 67.277344 49.972656 67.171875 50.035156 67.050781 C 49.316406 66.039062 48.726562 64.960938 48.257812 63.816406 C 47.835938 62.6875 47.441406 62.800781 47.246094 62.859375 C 47.050781 62.917969 46.109375 63.5625 45.496094 64.078125 C 45.035156 64.527344 44.527344 64.917969 43.980469 65.257812 L 40.519531 67.828125 C 40.15625 68.152344 39.75 68.421875 39.394531 68.679688 L 37.882812 69.765625 L 37.164062 70.4375 C 36.832031 70.867188 36.816406 71.332031 37.019531 72.128906 C 38.683594 78.726562 43.023438 84.351562 49.3125 87.972656 C 56.179688 91.910156 64.765625 92.957031 72.21875 90.769531 L 72.921875 90.5625 Z M 67.765625 71.980469 C 69.515625 71.46875 71.03125 70.566406 72.3125 69.269531 C 74.367188 67.015625 74.433594 64.949219 74.128906 63.601562 C 73.613281 60.914062 70.238281 57.84375 67.191406 58.1875 L 66.921875 58.207031 C 60.832031 57.953125 54.324219 57.632812 47.792969 56.621094 C 39.304688 56 31.199219 50.5625 27.226562 42.75 C 25.09375 38.613281 24.332031 34.253906 24.957031 30.039062 C 24.761719 30.320312 24.589844 30.613281 24.449219 30.921875 L 24.363281 31.039062 C 19.449219 37.492188 18.328125 45.214844 21.320312 52.277344 C 24.3125 59.339844 31.234375 64.601562 39.558594 65.699219 L 42.609375 63.398438 L 42.894531 63.222656 C 43.285156 62.988281 43.640625 62.710938 43.960938 62.390625 C 44.765625 61.695312 45.589844 60.964844 46.601562 60.667969 C 47.613281 60.371094 49.367188 60.097656 50.476562 63.042969 C 51.085938 64.527344 51.929688 65.867188 53.003906 67.0625 C 54.804688 67.175781 57.136719 67.3125 59.417969 67.378906 C 62.765625 67.035156 66.09375 69.417969 67.734375 71.988281 Z M 55.851562 69.585938 C 58.675781 71.503906 62.039062 72.5625 65.132812 72.386719 C 63.835938 70.875 61.679688 69.460938 59.582031 69.710938 L 59.441406 69.753906 Z M 67.570312 40.148438 L 67.929688 39.800781 C 68.597656 39.265625 69.308594 38.78125 69.984375 38.277344 C 71.300781 37.375 72.5625 36.402344 73.769531 35.363281 C 74.007812 35.019531 74.539062 34.34375 75.8125 32.746094 L 75.867188 32.730469 L 77.871094 30.1875 L 78.554688 28.980469 L 77.199219 29.988281 C 74.855469 31.777344 72.40625 33.625 69.871094 35.289062 L 69.410156 35.484375 L 68.988281 35.609375 L 66.707031 40.21875 Z M 55.757812 28.53125 C 54.570312 28.875 53.507812 29.453125 52.570312 30.261719 C 50.953125 31.714844 50.402344 33.070312 50.796875 34.722656 C 51.90625 39.4375 57.796875 40.148438 64.074219 40.199219 L 66.707031 34.8125 C 66.214844 34.25 65.851562 33.613281 65.625 32.902344 C 65.578125 32.824219 65.542969 32.742188 65.523438 32.65625 C 63.871094 28.589844 59.273438 27.5 55.757812 28.53125 Z M 55.757812 28.53125 " fill-opacity="1" fill-rule="nonzero"/></g></g></g></svg>